<svg width="288" height="366" viewBox="0 0 288 366" fill="none" xmlns="http://www.w3.org/2000/svg">
<g clip-path="url(#clip0_386_8527)">
<path d="M243.259 192.819C245.516 195.079 244.858 197.59 241.759 198.415L138.741 226.329C137.041 226.691 135.279 226.645 133.599 226.195C131.92 225.745 130.371 224.904 129.08 223.74L53.2397 147.901C50.975 145.64 51.6333 143.128 54.7391 142.306L157.757 114.392C159.458 114.03 161.22 114.075 162.899 114.525C164.578 114.975 166.127 115.817 167.418 116.981L243.259 192.819Z" fill="white" stroke="black" stroke-width="0.668411" stroke-linecap="round" stroke-linejoin="round"/>
<path d="M207.201 187.317L204.374 188.083L158.129 141.837C157.306 141.098 156.32 140.563 155.251 140.277C154.183 139.99 153.062 139.96 151.979 140.189L89.2015 157.201L87.1513 155.15C85.7154 153.704 86.1283 152.108 88.107 151.583L153.712 133.806C154.794 133.576 155.915 133.605 156.984 133.891C158.053 134.178 159.039 134.713 159.861 135.453L208.163 183.752C209.588 185.159 209.166 186.76 207.201 187.317Z" fill="#9EE705" stroke="#0F1830" stroke-width="0.668411" stroke-linecap="round" stroke-linejoin="round"/>
<path d="M204.388 188.028L193.001 191.114L155.083 153.199C154.26 152.46 153.274 151.926 152.206 151.64C151.137 151.353 150.016 151.323 148.934 151.552L97.5428 165.478L89.2152 157.146L151.993 140.134C153.075 139.906 154.196 139.936 155.265 140.222C156.333 140.509 157.319 141.043 158.142 141.782L204.388 188.028Z" fill="#D9D9D9" stroke="black" stroke-width="0.668411"/>
<path d="M192.994 191.141L141.603 205.068C140.521 205.298 139.399 205.269 138.33 204.982C137.262 204.696 136.276 204.16 135.454 203.42L97.5291 165.503L148.92 151.577C150.002 151.349 151.123 151.379 152.192 151.665C153.26 151.951 154.246 152.486 155.069 153.225L192.994 191.141Z" fill="black" stroke="black" stroke-width="0.668411" stroke-linecap="round" stroke-linejoin="round"/>
<path d="M244.457 196.377C244.437 196.453 244.418 196.521 244.398 196.596C244.373 196.651 244.344 196.705 244.312 196.756C244.293 196.824 244.273 196.899 244.193 196.951C244.161 197.004 244.124 197.053 244.081 197.097C244.063 197.165 243.981 197.224 243.929 197.283L243.793 197.408C243.723 197.477 243.646 197.544 243.571 197.605C243.523 197.644 243.472 197.679 243.419 197.71C243.301 197.798 243.177 197.877 243.047 197.948L242.902 198.026C242.824 198.071 242.734 198.106 242.649 198.149L242.418 198.248L242.128 198.346L241.824 198.44L138.806 226.354C138.258 226.508 137.695 226.603 137.127 226.636C136.668 226.656 136.208 226.648 135.75 226.611C135.45 226.582 135.145 226.544 134.849 226.502C134.553 226.459 134.332 226.407 134.078 226.346L103.914 337.632C104.174 337.702 104.427 337.77 104.686 337.788C104.945 337.806 105.292 337.877 105.593 337.899C106.051 337.938 106.511 337.947 106.971 337.924C107.539 337.889 108.102 337.795 108.65 337.642L211.661 309.726L211.765 309.695L211.973 309.627L212.256 309.527L212.495 309.43L212.746 309.314L212.787 309.325L212.884 309.263C213.011 309.19 213.134 309.113 213.253 309.032L213.333 308.98L213.401 308.918C213.48 308.86 213.556 308.797 213.627 308.73L213.723 308.646L213.738 308.591C213.794 308.533 213.847 308.471 213.897 308.407C213.929 308.373 213.958 308.336 213.984 308.298C213.984 308.298 213.984 308.298 213.995 308.257C214.006 308.216 214.073 308.132 214.112 308.069L214.19 307.943L214.2 307.902C214.219 307.834 214.239 307.759 214.257 307.69C214.276 307.622 214.283 307.595 214.296 307.547L214.312 307.485L244.475 196.199L244.457 196.377Z" fill="white" stroke="#0F1830" stroke-width="0.668411" stroke-linecap="round" stroke-linejoin="round"/>
<path d="M23.1047 259.218L98.9429 335.063C99.211 335.328 99.4976 335.574 99.8005 335.798C100.04 335.972 100.294 336.143 100.559 336.301C100.824 336.46 100.998 336.551 101.197 336.655C101.396 336.76 101.624 336.865 101.847 336.961C102.07 337.058 102.276 337.135 102.512 337.213C102.747 337.291 102.954 337.368 103.184 337.437C103.415 337.506 103.649 337.561 103.867 337.62L134.031 226.334L133.347 226.151C133.122 226.09 132.896 226.03 132.673 225.934C132.45 225.837 132.24 225.774 132.01 225.675C131.78 225.577 131.577 225.486 131.358 225.376C131.138 225.266 130.909 225.139 130.72 225.022C130.532 224.906 130.208 224.694 129.969 224.521C129.665 224.292 129.377 224.044 129.106 223.777L53.266 147.938C52.1082 146.793 51.6977 145.592 51.9705 144.574L21.8074 255.86C21.5346 256.878 21.9414 258.093 23.1028 259.224" fill="white"/>
<path d="M23.1047 259.218L98.9429 335.063C99.211 335.328 99.4976 335.574 99.8005 335.798C100.04 335.972 100.294 336.143 100.559 336.301C100.824 336.46 100.998 336.551 101.197 336.655C101.396 336.76 101.624 336.865 101.847 336.961C102.07 337.058 102.276 337.135 102.512 337.213C102.747 337.291 102.954 337.368 103.184 337.437C103.415 337.506 103.649 337.561 103.867 337.62L134.031 226.334L133.347 226.151C133.122 226.09 132.896 226.03 132.673 225.934C132.45 225.837 132.24 225.774 132.01 225.675C131.78 225.577 131.577 225.486 131.358 225.376C131.138 225.266 130.909 225.139 130.72 225.022C130.532 224.906 130.208 224.694 129.969 224.521C129.665 224.292 129.377 224.044 129.106 223.777L53.266 147.938C52.1082 146.793 51.6977 145.592 51.9705 144.574L21.8074 255.86C21.5346 256.878 21.9414 258.093 23.1028 259.224" stroke="#0F1830" stroke-width="0.668411" stroke-linecap="round" stroke-linejoin="round"/>
<path d="M223.924 217.664C226.1 217.083 227.399 218.36 226.818 220.526L207.6 293.069C207.218 294.233 206.566 295.29 205.698 296.154C204.831 297.018 203.771 297.666 202.606 298.043L129.76 317.564C127.583 318.145 126.287 316.861 126.867 314.695L146.085 242.152C146.468 240.99 147.12 239.934 147.987 239.071C148.855 238.208 149.914 237.562 151.078 237.185L223.924 217.664Z" fill="#66DE8C" stroke="#0F1830" stroke-width="0.668411" stroke-linecap="round" stroke-linejoin="round"/>
<path d="M204.164 290.779C203.823 291.823 203.24 292.772 202.463 293.549C201.686 294.326 200.737 294.908 199.692 295.249L134.272 312.776C132.323 313.301 131.153 312.145 131.673 310.205L132.074 308.708L195.6 291.692C196.643 291.35 197.592 290.767 198.367 289.99C199.143 289.213 199.725 288.264 200.064 287.22L216.929 223.567L218.824 223.057C220.78 222.534 221.945 223.681 221.43 225.63L204.164 290.779Z" fill="#9EE705" stroke="#0F1830" stroke-width="0.668411" stroke-linecap="round" stroke-linejoin="round"/>
<path d="M200.064 287.198C199.724 288.242 199.143 289.191 198.367 289.968C197.591 290.745 196.643 291.328 195.599 291.67L132.073 308.686L137.288 289.007L180.096 277.541C181.139 277.2 182.088 276.617 182.864 275.84C183.639 275.063 184.221 274.114 184.56 273.069L196.211 229.096L216.929 223.545L200.064 287.198Z" fill="#D9D9D9" stroke="black" stroke-width="0.668411"/>
<path d="M189.005 277.168C188.624 278.344 187.971 279.415 187.099 280.294C186.228 281.172 185.162 281.833 183.989 282.224L135.682 295.16L148.825 245.537C149.203 244.36 149.855 243.289 150.727 242.411C151.598 241.534 152.665 240.875 153.839 240.488L202.148 227.545L189.005 277.168Z" fill="black" stroke="black" stroke-width="0.668411" stroke-linecap="round" stroke-linejoin="round"/>
<path opacity="0.2" d="M204.112 311.475L170.959 320.746C166.08 319.095 161.577 316.492 157.712 313.088C143.554 300.719 140.581 280.955 151.07 268.951C161.558 256.946 181.534 257.253 195.693 269.623C208.984 281.239 212.417 299.369 204.112 311.475Z" fill="black" stroke="black" stroke-width="0.668411" stroke-linecap="round" stroke-linejoin="round"/>
<mask id="mask0_386_8527" style="mask-type:alpha" maskUnits="userSpaceOnUse" x="145" y="246" width="69" height="62">
<path d="M207.831 251.96L209.899 255.261L209.884 255.27L210.059 255.521C214.201 261.49 214.974 269.838 211.301 278.879C207.87 287.324 201.217 294.75 193.224 299.922C185.231 305.094 175.923 307.997 167.196 307.425C158.764 306.872 152.436 303.181 148.912 297.645L148.867 297.574L148.859 297.561L148.857 297.558C148.787 297.445 148.717 297.332 148.648 297.218L148.647 297.215L145.785 292.561L146.169 292.685L146.698 292.856L146.549 292.321C145.13 287.25 145.521 281.257 148.094 274.925C151.525 266.479 158.178 259.053 166.171 253.881C174.164 248.709 183.473 245.807 192.199 246.379C198.529 246.794 203.673 248.978 207.333 252.38L207.848 252.858L207.834 252.155L207.831 251.96Z" fill="#D9D9D9" stroke="black" stroke-width="0.597085"/>
</mask>
<g mask="url(#mask0_386_8527)">
<path d="M207.831 251.96L209.899 255.261L209.884 255.27L210.059 255.521C214.201 261.49 214.974 269.838 211.301 278.879C207.87 287.324 201.217 294.75 193.224 299.922C185.231 305.094 175.923 307.997 167.196 307.425C158.764 306.872 152.436 303.181 148.912 297.645L148.867 297.574L148.859 297.561L148.857 297.558C148.787 297.445 148.717 297.332 148.648 297.218L148.647 297.215L145.785 292.561L146.169 292.685L146.698 292.856L146.549 292.321C145.13 287.25 145.521 281.257 148.094 274.925C151.525 266.479 158.178 259.053 166.171 253.881C174.164 248.709 183.473 245.807 192.199 246.379C198.529 246.794 203.673 248.978 207.333 252.38L207.848 252.858L207.834 252.155L207.831 251.96Z" fill="#777E87" stroke="black" stroke-width="0.597085"/>
<path d="M178.324 295.037L185.611 307.046L152.52 309.603L142.291 287.744L178.324 295.037Z" fill="black"/>
<path d="M184.159 294.81L189.287 303.874L193.639 301.676L188.4 291.878L184.159 294.81Z" fill="black"/>
<path d="M207.869 252.088L209.85 255.25L209.834 255.26L210.029 255.541C214.164 261.499 214.938 269.833 211.268 278.866C207.84 287.303 201.192 294.724 193.205 299.892C185.217 305.061 175.916 307.96 167.198 307.389C158.776 306.837 152.459 303.151 148.942 297.626L148.897 297.555L148.889 297.542L148.888 297.539C148.817 297.427 148.747 297.314 148.679 297.2L148.677 297.197L145.866 292.625L146.158 292.719L146.751 292.91L146.583 292.311C145.167 287.249 145.557 281.264 148.127 274.938C151.555 266.501 158.203 259.08 166.19 253.911C174.178 248.743 183.479 245.843 192.197 246.415C198.52 246.829 203.655 249.011 207.308 252.406L207.885 252.942L207.87 252.155L207.869 252.088Z" stroke="black" stroke-width="0.668411"/>
</g>
<path d="M207.196 272.454C200.346 289.317 180.664 302.039 163.254 300.897C145.844 299.756 137.252 285.181 144.103 268.319C150.953 251.456 170.635 238.734 188.045 239.875C205.455 241.016 214.047 255.591 207.196 272.454Z" fill="#F3F3F3" stroke="black" stroke-width="0.668411"/>
<mask id="mask1_386_8527" style="mask-type:alpha" maskUnits="userSpaceOnUse" x="150" y="247" width="51" height="47">
<path d="M198.815 271.906C193.784 284.291 179.33 293.631 166.548 292.793C153.766 291.956 147.455 281.254 152.486 268.869C157.518 256.484 171.971 247.143 184.753 247.981C197.536 248.819 203.847 259.52 198.815 271.906Z" fill="#66DD8C" stroke="black" stroke-width="0.597085"/>
</mask>
<g mask="url(#mask1_386_8527)">
<path d="M198.815 271.906C193.784 284.291 179.33 293.631 166.548 292.793C153.766 291.956 147.455 281.254 152.486 268.869C157.518 256.484 171.971 247.143 184.753 247.981C197.536 248.819 203.847 259.52 198.815 271.906Z" fill="#D3F475" stroke="black" stroke-width="0.597085"/>
<path d="M199.916 273.632C195.101 285.485 181.269 294.422 169.041 293.62C156.812 292.819 150.771 282.58 155.586 270.726C160.402 258.873 174.233 249.937 186.462 250.738C198.691 251.54 204.732 261.778 199.916 273.632Z" stroke="white" stroke-width="0.668411"/>
<path d="M198.78 271.903C193.755 284.271 179.323 293.597 166.561 292.76C153.8 291.924 147.497 281.24 152.522 268.871C157.546 256.503 171.979 247.178 184.74 248.014C197.501 248.851 203.804 259.535 198.78 271.903Z" stroke="black" stroke-width="0.668411"/>
</g>
<path d="M172.582 260.226L177.836 261.343L180.375 257.503L181.56 256.439L183.377 258.141L180.838 261.981L183.089 262.46L186.815 257.555L188.631 259.258L186.092 263.098C193.596 264.693 190.084 271.184 185.842 271.875C185.59 271.916 185.833 272.301 185.833 272.301C189.947 274.436 184.625 283.227 174.243 281.02L171.704 284.861L168.701 284.223L167.2 282.609L171.241 280.382L168.989 279.904L166.45 283.744L163.448 283.106L161.666 281.384L165.987 279.265L160.733 278.149L158.952 276.423L163.176 275.748L164.677 276.067C165.503 276.242 166.559 275.81 167.025 275.106L173.795 264.865C174.261 264.161 173.966 263.441 173.141 263.265L170.889 262.787L169.063 261.092L172.582 260.226ZM179.145 264.542L175.76 269.662C175.76 269.662 182.303 271.418 184.207 268.538C186.112 265.657 179.145 264.542 179.145 264.542ZM174.49 271.583L170.682 277.343C170.682 277.343 178.938 279.098 180.842 276.218C182.746 273.337 174.49 271.583 174.49 271.583Z" fill="black"/>
<path d="M172.109 279.255L169.751 282.823L167.388 282.32L169.746 278.753L169.927 278.48L169.607 278.412L167.355 277.933L167.036 277.866L166.856 278.138L164.497 281.706L162.134 281.204L164.493 277.636L164.673 277.363L164.353 277.295L159.509 276.266L161.432 274.376L162.683 274.642C163.685 274.855 164.966 274.331 165.531 273.476L172.301 263.235C172.866 262.38 172.509 261.508 171.507 261.295L169.575 260.885L170.907 258.869L175.842 259.918L176.161 259.986L176.342 259.714L178.7 256.146L181.063 256.648L178.705 260.216L178.524 260.488L178.844 260.556L181.096 261.035L181.415 261.103L181.595 260.83L183.954 257.262L186.317 257.765L183.958 261.333L183.778 261.605L184.098 261.673C188.087 262.521 188.793 264.769 188.024 266.685C187.635 267.655 186.867 268.544 185.941 269.147C185.022 269.746 183.949 270.065 182.894 269.922L182.581 270.475C184.011 270.695 184.782 271.464 184.972 272.475C185.163 273.492 184.763 274.754 183.837 275.923C182.914 277.089 181.476 278.154 179.598 278.788C177.721 279.422 175.367 279.636 172.609 279.05L172.29 278.982L172.109 279.255ZM177.331 262.844L177.494 262.568L177.182 262.518L177.012 262.776L173.626 267.897L173.456 268.155L173.748 268.233L173.946 267.965C173.748 268.233 173.748 268.233 173.749 268.233L173.749 268.233L173.75 268.234L173.754 268.235L173.77 268.239C173.783 268.242 173.802 268.247 173.827 268.253C173.878 268.266 173.951 268.284 174.044 268.306C174.231 268.349 174.499 268.408 174.827 268.468C175.48 268.59 176.377 268.723 177.34 268.763C178.297 268.803 179.35 268.754 180.305 268.494C181.276 268.229 182.165 267.738 182.713 266.908C183.262 266.079 183.161 265.377 182.736 264.816C182.319 264.263 181.582 263.834 180.815 263.507C180.042 263.179 179.213 262.945 178.579 262.793C178.262 262.717 177.992 262.661 177.801 262.624C177.705 262.605 177.629 262.592 177.577 262.582C177.551 262.578 177.53 262.574 177.516 262.572L177.5 262.569L177.496 262.568L177.494 262.568L177.494 262.568C177.494 262.568 177.494 262.568 177.331 262.844ZM172.676 269.885L172.857 269.612L172.537 269.544L172.357 269.817L168.548 275.578L168.368 275.85L168.688 275.918L168.868 275.646C168.688 275.918 168.688 275.918 168.688 275.918L168.688 275.918L168.69 275.919L168.695 275.92L168.714 275.924C168.73 275.927 168.754 275.932 168.785 275.938C168.848 275.951 168.939 275.968 169.056 275.99C169.289 276.033 169.623 276.091 170.03 276.151C170.842 276.272 171.949 276.404 173.121 276.444C174.288 276.484 175.546 276.434 176.651 276.179C177.76 275.923 178.784 275.441 179.348 274.588C179.912 273.736 179.699 272.99 179.16 272.384C178.623 271.78 177.732 271.274 176.807 270.869C175.877 270.462 174.89 270.149 174.138 269.937C173.762 269.831 173.442 269.75 173.217 269.696C173.104 269.668 173.015 269.648 172.953 269.634C172.923 269.627 172.899 269.622 172.882 269.618L172.864 269.614L172.859 269.613L172.857 269.613L172.857 269.612C172.857 269.612 172.857 269.612 172.676 269.885Z" fill="white" stroke="black" stroke-width="0.653527"/>
<path d="M59.7257 175.154C58.131 173.562 56.3662 174.027 55.7876 176.186L36.1578 248.625C35.9069 249.824 35.9427 251.065 36.2621 252.248C36.5815 253.43 37.1756 254.521 37.996 255.43L91.3237 308.752C92.9115 310.342 94.6832 309.879 95.2617 307.72L114.891 235.281C115.145 234.083 115.11 232.842 114.791 231.66C114.471 230.478 113.875 229.389 113.051 228.482L59.7257 175.154Z" fill="#66DE8C" stroke="#0F1830" stroke-width="0.668411" stroke-linecap="round" stroke-linejoin="round"/>
<path d="M40.2788 248.36C40.0519 249.435 40.0819 250.548 40.3664 251.609C40.6509 252.67 41.1818 253.649 41.9159 254.467L89.8081 302.355C91.234 303.785 92.8247 303.369 93.3447 301.428L93.7456 299.932L47.2387 253.432C46.5056 252.615 45.9758 251.636 45.6925 250.575C45.4092 249.514 45.3804 248.401 45.6084 247.327L62.829 183.77L61.4436 182.381C60.0109 180.95 58.4289 181.36 57.9003 183.306L40.2788 248.36Z" fill="#9EE705" stroke="#0F1830" stroke-width="0.668411" stroke-linecap="round" stroke-linejoin="round"/>
<path d="M110.846 236.848C111.105 235.639 111.075 234.386 110.76 233.19C110.444 231.995 109.851 230.891 109.028 229.968L78.019 198.957L62.852 183.791L45.6314 247.348C45.4034 248.423 45.4322 249.535 45.7155 250.596C45.9988 251.657 46.5286 252.636 47.2618 253.453L93.7686 299.953L97.4401 286.415L110.846 236.848Z" fill="black" stroke="black" stroke-width="0.668411" stroke-linecap="round" stroke-linejoin="round"/>
<path opacity="0.2" d="M68.7 273.363L81.779 286.539C78.6179 290.996 70.0094 297.623 58.1201 293.99C56.0308 293.351 54.9221 290.792 53.053 288.921C53.052 288.92 53.0511 288.919 53.0501 288.918C53.0476 288.916 53.0452 288.913 53.0427 288.911C48.6958 284.564 47.0494 284.18 44.4609 280.326C45.0434 270.95 59.9017 263.121 68.7 273.363Z" fill="black"/>
<path d="M88.5402 219.206C88.4027 219.468 88.228 219.73 88.0212 219.99C87.3473 220.836 86.2961 221.711 84.9252 222.587C82.1804 224.34 78.0877 226.138 72.9598 227.733L72.9596 227.733C66.519 229.733 59.6395 231.041 53.7182 231.539C50.7575 231.788 48.0304 231.835 45.7139 231.663C43.4042 231.492 41.4756 231.101 40.1289 230.456L88.5402 219.206ZM88.5402 219.206L97.278 259.756L97.2781 259.756C97.3954 260.299 97.1961 260.958 96.5837 261.728C95.9744 262.495 94.9911 263.324 93.6516 264.18C90.9755 265.89 86.9434 267.667 81.8455 269.251C75.4524 271.238 68.6205 272.536 62.7477 273.03C59.8114 273.277 57.1206 273.322 54.8481 273.153C52.5688 272.984 50.7371 272.601 49.5013 272.009L49.5011 272.009C48.496 271.529 48.0258 270.977 47.9058 270.425C47.9057 270.425 47.9057 270.425 47.9057 270.425L39.1677 229.875C39.4394 230.087 39.7609 230.28 40.1288 230.456L88.5402 219.206Z" fill="#EDFFB9" stroke="#1D1D1D" stroke-width="0.668411"/>
<path d="M40.3753 227.756L49.1214 268.337C49.2582 268.967 49.7885 269.523 50.7554 269.972C55.5143 272.187 68.9931 271.016 80.8593 267.353C90.3172 264.435 95.8962 260.814 95.3623 258.343L86.6166 217.763C87.1478 220.234 81.5686 223.852 72.1133 226.772C60.2434 230.433 46.7683 231.605 42.0094 229.39C41.0425 228.941 40.5121 228.385 40.3753 227.756Z" fill="url(#paint0_linear_386_8527)"/>
<path d="M86.3516 221.009C86.5284 220.79 86.6805 220.568 86.8039 220.346L95.0823 258.763L95.0824 258.763C95.1865 259.246 95.0076 259.839 94.4419 260.542C93.8797 261.241 92.9718 261.999 91.7333 262.784C89.2594 264.351 85.5323 265.984 80.8199 267.442C74.9105 269.272 68.5975 270.474 63.1723 270.938C60.4598 271.171 57.975 271.218 55.8774 271.069C53.773 270.92 52.0851 270.574 50.9489 270.038L50.9486 270.038C50.024 269.603 49.6012 269.106 49.4946 268.616C49.4946 268.616 49.4946 268.616 49.4946 268.615L41.2159 230.198C41.457 230.377 41.7376 230.541 42.0545 230.69L42.1968 230.387L42.0543 230.689C43.3011 231.277 45.0855 231.631 47.22 231.782C49.3612 231.934 51.8818 231.885 54.6184 231.65C60.0915 231.181 66.4517 229.97 72.4079 228.127L72.4081 228.127C77.1503 226.658 80.9374 225.005 83.4795 223.395C84.749 222.591 85.7247 221.787 86.3516 221.009Z" stroke="#121212" stroke-width="0.668411"/>
<path d="M37.971 229.365L40.0814 239.333C40.237 240.05 40.8307 240.685 41.9101 241.2C47.2224 243.743 62.2299 242.483 75.4281 238.381C85.9476 235.113 92.1429 231.026 91.5353 228.214L89.428 218.26C90.011 221.072 83.8183 225.147 73.3177 228.413C60.1155 232.512 45.1121 233.775 39.7997 231.232C38.7203 230.716 38.1267 230.081 37.971 229.365Z" fill="#D3F475" stroke="#1D1D1D" stroke-width="0.668411"/>
<path d="M73.3177 228.412C60.1195 232.514 45.1121 233.775 39.7997 231.231C34.4874 228.688 40.8832 223.299 54.0814 219.197C67.2796 215.095 82.2838 213.835 87.5961 216.379C92.9085 218.922 86.5126 224.311 73.3177 228.412Z" fill="#D3F475" stroke="#1D1D1D" stroke-width="0.668411"/>
<path d="M44.7659 232.734C44.6603 232.258 44.8647 231.767 45.2768 231.506L57.4209 223.827L64.7656 222.231L51.4105 231.921C51.0376 232.192 50.8609 232.658 50.9607 233.108L59.8881 273.348C59.8881 273.348 58.1522 273.528 56.5638 273.479C55.418 273.443 53.7226 273.11 53.7226 273.11L44.7659 232.734Z" fill="#49D691" stroke="#1D1D1D" stroke-width="0.668411" stroke-linejoin="round"/>
<path d="M84.3131 224.132C84.2082 223.66 83.8203 223.303 83.3409 223.238L69.0974 221.29L61.7527 222.887L77.9323 226.161C78.3802 226.252 78.7327 226.598 78.8318 227.044L87.7561 267.217C87.7561 267.217 89.2661 266.712 90.6909 266.008C91.7186 265.5 93.2668 264.442 93.2668 264.442L84.3131 224.132Z" fill="#49D691" stroke="#1D1D1D" stroke-width="0.668411" stroke-linejoin="round"/>
<path d="M63.0361 222.438L63.3226 223.756L85.8067 221.156C86.2847 221.1 86.747 221.347 86.9674 221.775L93.651 234.745L96.9191 231.544L90.4913 219.07C90.0641 218.241 89.3963 217.56 88.5754 217.117L88.324 216.982C87.286 216.422 86.0733 216.28 84.9339 216.584L63.0361 222.438Z" fill="#49D691" stroke="#1D1D1D" stroke-width="0.668411" stroke-linejoin="round"/>
<path d="M63.4123 222.356L63.6988 223.674L42.3991 230.564C41.8335 230.747 41.4988 231.329 41.6251 231.91L44.2676 244.069L39.761 242.798L37.0161 230.952C36.7429 229.772 37.0074 228.533 37.7382 227.568C38.3747 226.727 39.312 226.166 40.3534 226.001L63.4123 222.356Z" fill="#49D691" stroke="#1D1D1D" stroke-width="0.668411" stroke-linejoin="round"/>
<path d="M66.0763 214.78C64.2091 216.514 62.2159 218.303 61.8223 219.645L62.7112 223.735C65.0055 223.28 66.3075 223.727 70.2869 223.117C74.5627 222.461 78.5179 221.153 79.5629 220.073C81.6615 217.903 80.0764 211.004 76.2439 209.707C74.0351 208.959 69.5461 211.557 66.0763 214.78Z" fill="#49D691" stroke="#1D1D1D" stroke-width="0.668411" stroke-linejoin="round"/>
<path d="M73.6749 216.745C70.3955 217.662 64.4332 220.619 63.5582 221.323L63.8071 222.469C65.5553 222.245 68.3985 222.173 70.9845 221.594C74.0701 220.904 75.3267 220.579 77.3487 219.526C79.3708 218.472 78.9422 217.442 78.8998 217.247C78.8 216.788 78.4185 215.418 73.6749 216.745Z" fill="#121212" stroke="#1D1D1D" stroke-width="0.668411" stroke-linejoin="round"/>
<path d="M56.7978 216.796C59.2165 217.599 61.7723 218.399 62.6875 219.457L63.5764 223.547C61.3 224.085 60.3011 225.032 56.4273 226.129C52.2651 227.307 48.1239 227.759 46.7247 227.209C43.915 226.107 42.4936 219.172 45.4418 216.401C47.1411 214.804 52.3034 215.304 56.7978 216.796Z" fill="#49D691" stroke="#1D1D1D" stroke-width="0.668411" stroke-linejoin="round"/>
<path d="M50.6984 221.738C54.0627 221.212 60.7145 221.427 61.8028 221.704L62.0517 222.85C60.3684 223.372 57.7517 224.486 55.1587 225.033C52.0649 225.685 50.7869 225.912 48.5101 225.793C46.2332 225.674 46.1955 224.558 46.153 224.363C46.0533 223.904 45.8319 222.5 50.6984 221.738Z" fill="#121212" stroke="#1D1D1D" stroke-width="0.668411" stroke-linejoin="round"/>
<path d="M58.8003 220.182C58.6584 218.814 59.5675 217.559 60.911 217.267L62.835 216.849C64.1785 216.557 65.5267 217.322 65.9652 218.625L66.5437 220.344C67.0567 221.868 66.131 223.499 64.5596 223.841L62.2441 224.344C60.6727 224.686 59.1533 223.585 58.9874 221.986L58.8003 220.182Z" fill="#49D691" stroke="#1D1D1D" stroke-width="0.668411" stroke-linejoin="round"/>
<path d="M89.2932 13.2401L86.3668 153.79C86.3668 153.79 85.7869 154.096 88.827 156.771L134.397 202.339C135.269 203.525 136.489 204.409 137.887 204.869C139.285 205.329 140.792 205.342 142.197 204.905L205.742 187.681C205.742 187.681 208.584 187.132 208.902 186.082L273.765 62.6543L89.2932 13.2401Z" fill="url(#paint1_linear_386_8527)"/>
<path d="M150.747 91.4376C143.758 93.0672 136.408 91.8548 130.312 88.0669C124.216 84.2789 119.874 78.2255 118.24 71.2373C117.732 69.1033 117.495 66.9138 117.533 64.7205C120.284 70.1031 124.758 74.41 130.241 76.9543C135.724 79.4986 141.901 80.1339 147.788 78.7591C153.67 77.3766 158.92 74.0665 162.704 69.3555C166.488 64.6445 168.587 58.8034 168.668 52.7617C169.67 54.7126 170.427 56.7798 170.922 58.9165C172.555 65.9041 171.347 73.2541 167.564 79.3518C163.781 85.4496 157.733 89.7964 150.747 91.4376Z" fill="#9EE705" stroke="#0F1830" stroke-width="0.668411" stroke-linecap="round" stroke-linejoin="round"/>
<path d="M147.788 78.759C141.901 80.1339 135.724 79.4986 130.241 76.9543C124.757 74.41 120.284 70.1031 117.533 64.7205C117.609 58.6752 119.706 52.8293 123.491 48.1149C127.276 43.4006 132.531 40.0895 138.417 38.7094C144.307 37.3335 150.488 37.9702 155.973 40.5179C161.459 43.0656 165.933 47.3775 168.681 52.7653C168.599 58.8083 166.497 64.6499 162.711 69.3604C158.925 74.0709 153.672 77.3793 147.788 78.759Z" fill="#C9F67E" stroke="#0F1830" stroke-width="0.668411" stroke-linecap="round" stroke-linejoin="round"/>
<path d="M197.583 32.7401C197.883 32.5622 198.229 32.4785 198.577 32.4996C198.925 32.5207 199.258 32.6458 199.534 32.8586C199.81 33.0714 200.016 33.3621 200.124 33.6931C200.233 34.0242 200.24 34.3802 200.144 34.7152L198.832 39.2556C198.765 39.4839 198.745 39.7239 198.775 39.9601C198.805 40.1963 198.884 40.4236 199.007 40.6278L201.428 44.682C201.606 44.9817 201.69 45.3278 201.669 45.6757C201.648 46.0235 201.523 46.3569 201.31 46.6329C201.097 46.9088 200.806 47.1145 200.475 47.2233C200.144 47.3321 199.788 47.339 199.453 47.2432L194.913 45.9313C194.684 45.8628 194.444 45.843 194.208 45.873C193.972 45.903 193.744 45.9822 193.541 46.1055L189.48 48.5252C189.181 48.7044 188.834 48.7894 188.487 48.7689C188.139 48.7484 187.805 48.6233 187.529 48.4102C187.253 48.1971 187.048 47.9058 186.94 47.5743C186.833 47.2428 186.827 46.8865 186.925 46.5519L188.237 42.0116C188.302 41.7829 188.32 41.5434 188.29 41.3076C188.26 41.0718 188.183 40.8445 188.063 40.6393L185.643 36.5784C185.464 36.2794 185.379 35.9334 185.399 35.5854C185.42 35.2374 185.545 34.9037 185.758 34.6279C185.971 34.352 186.262 34.1468 186.594 34.0391C186.926 33.9314 187.282 33.9262 187.616 34.0241L192.157 35.3358C192.386 35.4001 192.625 35.4177 192.861 35.3878C193.096 35.3579 193.324 35.281 193.529 35.1616L197.583 32.7401Z" fill="#FFD056"/>
<path d="M144.679 196.43C140.639 197.373 136.391 196.673 132.867 194.485C129.344 192.297 126.833 188.799 125.887 184.76C125.598 183.525 125.462 182.259 125.484 180.991C127.071 184.103 129.656 186.594 132.825 188.064C135.994 189.535 139.565 189.9 142.966 189.102C146.368 188.308 149.407 186.398 151.596 183.676C153.786 180.953 155.001 177.576 155.046 174.082C155.629 175.209 156.069 176.405 156.356 177.641C157.298 181.681 156.597 185.929 154.407 189.453C152.218 192.976 148.718 195.486 144.679 196.43Z" fill="#FFC136" stroke="#231815" stroke-width="0.668411" stroke-linecap="round" stroke-linejoin="round"/>
<path d="M142.966 189.102C139.564 189.9 135.994 189.535 132.824 188.064C129.655 186.594 127.071 184.103 125.484 180.991C125.527 177.496 126.74 174.116 128.93 171.392C131.121 168.668 134.161 166.757 137.566 165.964C140.97 165.168 144.543 165.535 147.713 167.007C150.884 168.48 153.471 170.972 155.059 174.086C155.012 177.581 153.795 180.959 151.603 183.681C149.411 186.403 146.37 188.311 142.966 189.102Z" fill="#FFD056" stroke="#231815" stroke-width="0.668411" stroke-linecap="round" stroke-linejoin="round"/>
<path d="M172.139 179.218C172.367 179.083 172.63 179.019 172.895 179.034C173.16 179.05 173.414 179.146 173.624 179.308C173.834 179.47 173.99 179.691 174.073 179.943C174.155 180.196 174.16 180.467 174.087 180.722L173.085 184.188C173.035 184.363 173.021 184.546 173.045 184.726C173.068 184.906 173.128 185.079 173.221 185.235L175.07 188.338C175.209 188.566 175.275 188.832 175.26 189.099C175.245 189.366 175.149 189.622 174.986 189.834C174.822 190.045 174.598 190.202 174.343 190.284C174.088 190.365 173.815 190.368 173.558 190.291L170.092 189.289C169.918 189.237 169.734 189.223 169.554 189.246C169.374 189.27 169.2 189.331 169.045 189.426L165.942 191.275C165.713 191.409 165.449 191.472 165.184 191.456C164.918 191.439 164.664 191.343 164.454 191.18C164.244 191.017 164.087 190.795 164.004 190.542C163.921 190.29 163.916 190.018 163.989 189.763L164.998 186.298C165.048 186.123 165.062 185.94 165.038 185.76C165.015 185.58 164.955 185.407 164.862 185.251L163.012 182.148C162.874 181.92 162.808 181.656 162.823 181.389C162.837 181.123 162.933 180.867 163.095 180.655C163.258 180.444 163.481 180.287 163.735 180.204C163.989 180.122 164.262 180.118 164.518 180.193L167.984 181.196C168.159 181.248 168.344 181.263 168.525 181.24C168.707 181.217 168.882 181.156 169.038 181.061L172.139 179.218Z" fill="#9EE705" stroke="#0F1830" stroke-width="0.668411" stroke-linecap="round" stroke-linejoin="round"/>
<path d="M192.631 169.346C187.493 170.546 182.088 169.656 177.606 166.871C173.124 164.087 169.931 159.636 168.73 154.498C168.359 152.929 168.185 151.321 168.212 149.709C170.227 153.67 173.512 156.842 177.541 158.718C181.57 160.594 186.111 161.066 190.44 160.059C194.767 159.048 198.632 156.618 201.418 153.156C204.203 149.694 205.75 145.399 205.811 140.956C206.547 142.39 207.104 143.909 207.47 145.479C208.658 150.611 207.763 156.005 204.982 160.479C202.201 164.952 197.759 168.141 192.631 169.346Z" fill="#66DE8C" stroke="#0F1830" stroke-width="0.668411" stroke-linecap="round" stroke-linejoin="round"/>
<path d="M190.449 160.024C186.12 161.031 181.579 160.559 177.55 158.683C173.52 156.807 170.236 153.635 168.221 149.674C168.278 145.228 169.823 140.928 172.61 137.463C175.397 133.998 179.265 131.567 183.595 130.557C187.928 129.549 192.473 130.022 196.505 131.899C200.538 133.775 203.826 136.949 205.844 140.913C205.784 145.361 204.234 149.66 201.443 153.124C198.653 156.589 194.782 159.018 190.449 160.024Z" fill="#8BFCAB" stroke="#0F1830" stroke-width="0.668411" stroke-linecap="round" stroke-linejoin="round"/>
<path d="M142.108 159.403C143.662 159.82 145.26 158.897 145.677 157.343C146.094 155.788 145.171 154.19 143.616 153.773C142.062 153.357 140.464 154.279 140.047 155.834C139.63 157.389 140.553 158.987 142.108 159.403Z" fill="white" stroke="black" stroke-width="0.668411" stroke-linecap="round" stroke-linejoin="round"/>
<path d="M219.488 57.1149C221.042 57.5315 222.64 56.6089 223.057 55.0542C223.474 53.4995 222.551 51.9014 220.996 51.4848C219.441 51.0683 217.843 51.9909 217.427 53.5456C217.01 55.1003 217.933 56.6984 219.488 57.1149Z" fill="#66DE8C" stroke="#0F1830" stroke-width="0.668411" stroke-linecap="round" stroke-linejoin="round"/>
<path d="M117.725 98.1958C119.28 98.6124 120.878 97.6898 121.294 96.1351C121.711 94.5804 120.788 92.9823 119.234 92.5657C117.679 92.1491 116.081 93.0718 115.664 94.6265C115.248 96.1812 116.17 97.7792 117.725 98.1958Z" fill="#66DE8C" stroke="#0F1830" stroke-width="0.668411" stroke-linecap="round" stroke-linejoin="round"/>
<path d="M213.899 124.412C215.453 124.829 217.052 123.906 217.468 122.351C217.885 120.796 216.962 119.198 215.407 118.782C213.853 118.365 212.255 119.288 211.838 120.843C211.421 122.397 212.344 123.995 213.899 124.412Z" fill="#66DE8C" stroke="#0F1830" stroke-width="0.668411" stroke-linecap="round" stroke-linejoin="round"/>
<path d="M158.701 128.164C160.256 128.58 161.854 127.658 162.271 126.103C162.687 124.548 161.765 122.95 160.21 122.534C158.655 122.117 157.057 123.04 156.641 124.595C156.224 126.149 157.147 127.747 158.701 128.164Z" fill="#66DE8C" stroke="#0F1830" stroke-width="0.668411" stroke-linecap="round" stroke-linejoin="round"/>
</g>
<defs>
<linearGradient id="paint0_linear_386_8527" x1="63.4662" y1="222.738" x2="75.2271" y2="276.853" gradientUnits="userSpaceOnUse">
<stop stop-color="#BAEA33"/>
<stop offset="1" stop-color="#E4FF96"/>
</linearGradient>
<linearGradient id="paint1_linear_386_8527" x1="180.153" y1="43.083" x2="136.869" y2="204.619" gradientUnits="userSpaceOnUse">
<stop stop-color="white" stop-opacity="0"/>
<stop offset="1" stop-color="#00FD50" stop-opacity="0.38"/>
</linearGradient>
<clipPath id="clip0_386_8527">
<rect width="211.664" height="320.837" fill="white" transform="translate(83.4067 0.848373) rotate(15)"/>
</clipPath>
</defs>
</svg>
